<svg width="30" height="30" viewBox="0 0 30 30" fill="none" xmlns="http://www.w3.org/2000/svg">
<path d="M26.9805 5.99023C26.7207 5.99798 26.4741 6.10655 26.293 6.29297L11 21.5859L4.70703 15.293C4.61489 15.197 4.50452 15.1204 4.38239 15.0676C4.26026 15.0148 4.12883 14.9869 3.99579 14.9856C3.86275 14.9842 3.73077 15.0094 3.6076 15.0597C3.48442 15.11 3.37251 15.1844 3.27843 15.2784C3.18436 15.3725 3.10999 15.4844 3.05971 15.6076C3.00942 15.7308 2.98421 15.8627 2.98556 15.9958C2.98692 16.1288 3.0148 16.2603 3.06759 16.3824C3.12037 16.5045 3.197 16.6149 3.29297 16.707L10.293 23.707C10.4805 23.8945 10.7348 23.9998 11 23.9998C11.2652 23.9998 11.5195 23.8945 11.707 23.707L27.707 7.70703C27.8515 7.56657 27.9502 7.38573 27.9902 7.18821C28.0301 6.99069 28.0095 6.7857 27.931 6.60012C27.8524 6.41453 27.7197 6.257 27.55 6.14817C27.3804 6.03935 27.1819 5.98429 26.9805 5.99023Z" fill="black"/>
</svg>
